<svg width="17" height="21" viewBox="0 0 17 21" fill="none" xmlns="http://www.w3.org/2000/svg">
<path d="M8.50003 0.0833435C6.29133 0.0855522 4.17386 0.964501 2.61286 2.52707C1.05185 4.08963 0.175025 6.20798 0.175026 8.41668C0.148632 11.0949 0.928435 13.7191 2.41309 15.9484C3.89774 18.1776 6.0186 19.9087 8.50003 20.9167C10.9807 19.908 13.1006 18.1766 14.5845 15.9475C16.0684 13.7183 16.8476 11.0944 16.8209 8.41668C16.8209 6.2087 15.9446 4.09098 14.3845 2.52854C12.8244 0.966091 10.708 0.0866555 8.50003 0.0833435ZM8.50003 11.5417C7.88196 11.5417 7.27777 11.3584 6.76387 11.015C6.24997 10.6716 5.84943 10.1836 5.6129 9.61256C5.37638 9.04154 5.31449 8.41321 5.43507 7.80702C5.55565 7.20083 5.85328 6.64401 6.29032 6.20697C6.72736 5.76993 7.28418 5.4723 7.89037 5.35172C8.49656 5.23114 9.12489 5.29303 9.69591 5.52955C10.2669 5.76608 10.755 6.16662 11.0984 6.68052C11.4417 7.19442 11.625 7.79861 11.625 8.41668C11.625 9.24548 11.2958 10.0403 10.7097 10.6264C10.1237 11.2124 9.32883 11.5417 8.50003 11.5417Z" fill="black"/>
</svg>
