<svg width="229" height="59" viewBox="0 0 229 59" fill="none" xmlns="http://www.w3.org/2000/svg">
<path d="M45.4731 7.8H47.3131L51.1211 17.224L54.9131 7.8H56.7531V19H55.0891V11.256L54.5291 12.92L51.9691 19H50.2571L47.6971 12.92L47.1531 11.256V19H45.4731V7.8ZM66.8607 15.032C66.8607 17.768 64.7807 19.224 62.6207 19.224C60.4447 19.224 58.3647 17.768 58.3647 15.032C58.3647 12.296 60.4447 10.84 62.6207 10.84C64.7807 10.84 66.8607 12.296 66.8607 15.032ZM62.6207 17.704C63.9967 17.704 65.1807 16.664 65.1807 15.032C65.1807 13.4 63.9967 12.36 62.6207 12.36C61.2287 12.36 60.0447 13.4 60.0447 15.032C60.0447 16.664 61.2287 17.704 62.6207 17.704ZM72.2781 19.224C69.5421 19.224 68.1181 17.144 68.1181 13.96C68.1181 12.44 68.4381 11.256 68.9181 10.328C69.7661 8.712 71.3981 8.184 73.0461 8.024C73.6221 7.96 74.2621 7.864 74.6781 7.432L75.6221 8.456C75.0461 9.128 74.3101 9.352 72.9981 9.496C71.2381 9.672 69.8301 10.376 69.4781 13.032C70.0701 11.976 71.1741 11.336 72.5661 11.336C74.6301 11.336 76.2141 12.888 76.2141 15.256C76.2141 17.624 74.5341 19.224 72.2781 19.224ZM72.2781 17.784C73.6381 17.784 74.6781 16.776 74.6781 15.288C74.6781 13.784 73.6381 12.776 72.2781 12.776C70.9181 12.776 69.8781 13.784 69.8781 15.288C69.8781 16.776 70.9181 17.784 72.2781 17.784ZM77.7818 19V11.064H79.3658V16.792L83.1578 11.064H84.9018V19H83.3178V13.272L79.5258 19H77.7818ZM86.9057 19.112C86.5697 19.112 86.2497 19 86.2497 19V17.544C86.2497 17.544 86.4577 17.64 86.8097 17.64C87.3217 17.64 87.5617 17.32 87.6577 15.784L87.9137 11.064H93.8177V19H92.1697V12.552H89.3537L89.1777 15.848C89.0657 18.12 88.4897 19.112 86.9057 19.112ZM95.7818 19V11.064H97.4298V13.784H99.2538C101.078 13.784 102.262 14.696 102.262 16.392C102.262 18.072 101.078 19 99.2538 19H95.7818ZM97.4298 17.704H99.2058C100.182 17.704 100.662 17.16 100.662 16.392C100.662 15.608 100.182 15.064 99.2058 15.064H97.4298V17.704ZM103.829 19V11.064H105.477V14.152H109.173V11.064H110.821V19H109.173V15.592H105.477V19H103.829ZM120.908 15.032C120.908 17.768 118.828 19.224 116.668 19.224C114.492 19.224 112.412 17.768 112.412 15.032C112.412 12.296 114.492 10.84 116.668 10.84C118.828 10.84 120.908 12.296 120.908 15.032ZM116.668 17.704C118.044 17.704 119.228 16.664 119.228 15.032C119.228 13.4 118.044 12.36 116.668 12.36C115.276 12.36 114.092 13.4 114.092 15.032C114.092 16.664 115.276 17.704 116.668 17.704ZM123.621 15.384C123.733 16.792 124.677 17.8 126.069 17.8C127.301 17.8 127.813 17.256 128.325 16.552L129.621 17.24C128.885 18.488 127.797 19.224 126.037 19.224C123.845 19.224 122.021 17.528 122.021 15.032C122.021 12.552 123.845 10.84 126.117 10.84C128.421 10.84 129.957 12.488 129.957 14.808V15.384H123.621ZM126.069 12.136C124.853 12.136 123.925 12.984 123.653 14.088H128.373C128.245 12.84 127.285 12.136 126.069 12.136ZM135.969 19V11.064H142.833V19H141.169V12.552H137.617V19H135.969ZM144.861 11.064H146.525V12.36C147.021 11.512 148.077 10.84 149.341 10.84C151.373 10.84 153.021 12.488 153.021 15.032C153.021 17.512 151.357 19.224 149.213 19.224C148.029 19.224 147.085 18.696 146.525 17.88V22.264H144.861V11.064ZM148.861 12.36C147.421 12.36 146.397 13.512 146.397 15.032C146.397 16.552 147.421 17.704 148.861 17.704C150.301 17.704 151.325 16.568 151.325 15.032C151.325 13.496 150.301 12.36 148.861 12.36ZM154.61 19V11.064H156.194V16.792L159.986 11.064H161.73V19H160.146V13.272L156.354 19H154.61ZM163.734 19.112C163.398 19.112 163.078 19 163.078 19V17.544C163.078 17.544 163.286 17.64 163.638 17.64C164.15 17.64 164.39 17.32 164.486 15.784L164.742 11.064H170.646V19H168.998V12.552H166.182L166.006 15.848C165.894 18.12 165.318 19.112 163.734 19.112ZM180.72 15.032C180.72 17.768 178.64 19.224 176.48 19.224C174.304 19.224 172.224 17.768 172.224 15.032C172.224 12.296 174.304 10.84 176.48 10.84C178.64 10.84 180.72 12.296 180.72 15.032ZM176.48 17.704C177.856 17.704 179.04 16.664 179.04 15.032C179.04 13.4 177.856 12.36 176.48 12.36C175.088 12.36 173.904 13.4 173.904 15.032C173.904 16.664 175.088 17.704 176.48 17.704ZM192.665 19H190.665L187.961 15.528V19H186.313V15.496L183.609 19H181.609L184.921 14.792L181.657 11.064H183.785L186.313 14.152V11.064H187.961V14.136L190.489 11.064H192.617L189.353 14.792L192.665 19ZM194.605 15.384C194.717 16.792 195.661 17.8 197.053 17.8C198.285 17.8 198.797 17.256 199.309 16.552L200.605 17.24C199.869 18.488 198.781 19.224 197.021 19.224C194.829 19.224 193.005 17.528 193.005 15.032C193.005 12.552 194.829 10.84 197.101 10.84C199.405 10.84 200.941 12.488 200.941 14.808V15.384H194.605ZM197.053 12.136C195.837 12.136 194.909 12.984 194.637 14.088H199.357C199.229 12.84 198.269 12.136 197.053 12.136ZM202.532 19V11.064H204.18V14.152H207.876V11.064H209.524V19H207.876V15.592H204.18V19H202.532ZM211.501 19V11.064H213.085V16.792L216.877 11.064H218.621V19H217.037V13.272L213.245 19H211.501ZM221.808 15.384C221.92 16.792 222.864 17.8 224.256 17.8C225.488 17.8 226 17.256 226.512 16.552L227.808 17.24C227.072 18.488 225.984 19.224 224.224 19.224C222.032 19.224 220.208 17.528 220.208 15.032C220.208 12.552 222.032 10.84 224.304 10.84C226.608 10.84 228.144 12.488 228.144 14.808V15.384H221.808ZM224.256 12.136C223.04 12.136 222.112 12.984 221.84 14.088H226.56C226.432 12.84 225.472 12.136 224.256 12.136Z" fill="black"/>
<g clip-path="url(#clip0_49_2)">
<path d="M32.9827 26.8274C32.539 44.6672 17.9401 59.0001 0 59.0001V7.6001H4.75538L8.22141 11.0688L8.23874 11.0515V37.7678C8.23874 38.7911 9.06711 39.6271 10.0861 39.6271H19.4479C26.6849 39.6271 32.5771 33.9696 32.9792 26.8239L32.9827 26.8274Z" fill="#669BBC"/>
<path d="M33 9.45241V26.1336C32.9653 33.5984 26.9206 39.6306 19.4513 39.6306H10.0896C9.0671 39.6306 8.24219 38.7946 8.24219 37.7713V11.0515L11.6909 7.6001H31.1422C31.267 7.6001 31.3918 7.6105 31.5165 7.63479C31.9429 7.72497 32.3068 7.95391 32.5737 8.2765C32.5737 8.2765 32.5737 8.27997 32.5737 8.28691C32.688 8.41872 32.7886 8.56441 32.8509 8.73091C32.8509 8.73091 32.8509 8.73438 32.8509 8.74132C32.8856 8.79335 32.9029 8.85579 32.9133 8.91822C32.9757 9.08819 33.0035 9.2651 33.0035 9.45241H33Z" fill="#C11720"/>
<path d="M12.391 0.274031L15.4169 3.30225C15.5902 3.47569 15.6768 3.70116 15.6768 3.92663C15.6768 4.1521 15.5902 4.37757 15.4169 4.551L8.87995 11.0965C8.70665 11.27 8.48136 11.3567 8.25606 11.3567C8.03077 11.3567 7.80548 11.27 7.63218 11.0965L1.07447 4.53713C0.901165 4.36369 0.814514 4.13475 0.814514 3.91275C0.814514 3.69075 0.901165 3.46181 1.07447 3.28838L4.1003 0.260156C4.2736 0.0867188 4.4989 0 4.72419 0C4.94948 0 5.17477 0.0867188 5.34807 0.260156L8.2526 3.16697L11.1398 0.274031C11.3131 0.100594 11.5384 0.013875 11.7637 0.013875C11.989 0.013875 12.2143 0.100594 12.3876 0.274031H12.391ZM14.5122 3.92663L11.7637 1.17591L8.63386 4.30819L8.2526 4.68975L7.87134 4.30819L4.72419 1.16203L1.97563 3.91275L8.2526 10.1947L14.5122 3.9301V3.92663Z" fill="#524697"/>
</g>
<defs>
<clipPath id="clip0_49_2">
<rect width="33" height="59" fill="white"/>
</clipPath>
</defs>
</svg>
