<svg width="33" height="59" viewBox="0 0 33 59" fill="none" xmlns="http://www.w3.org/2000/svg">
<g clip-path="url(#clip0_2_11)">
<path d="M32.9827 26.8273C32.539 44.6671 17.9401 59 0 59V7.60004H4.75538L8.22141 11.0688L8.23874 11.0514V37.7678C8.23874 38.7911 9.06711 39.627 10.0861 39.627H19.4479C26.6849 39.627 32.5771 33.9695 32.9792 26.8239L32.9827 26.8273Z" fill="#669BBC"/>
<path d="M33 9.45235V26.1336C32.9653 33.5983 26.9206 39.6305 19.4513 39.6305H10.0896C9.0671 39.6305 8.24219 38.7945 8.24219 37.7712V11.0514L11.6909 7.60004H31.1422C31.267 7.60004 31.3918 7.61044 31.5165 7.63472C31.9429 7.72491 32.3068 7.95385 32.5737 8.27644C32.5737 8.27644 32.5737 8.27991 32.5737 8.28685C32.688 8.41866 32.7886 8.56435 32.8509 8.73085C32.8509 8.73085 32.8509 8.73432 32.8509 8.74126C32.8856 8.79329 32.9029 8.85572 32.9133 8.91816C32.9757 9.08813 33.0035 9.26504 33.0035 9.45235H33Z" fill="#C11720"/>
<path d="M12.391 0.274031L15.4169 3.30225C15.5902 3.47569 15.6768 3.70116 15.6768 3.92663C15.6768 4.1521 15.5902 4.37757 15.4169 4.551L8.87995 11.0965C8.70665 11.27 8.48136 11.3567 8.25606 11.3567C8.03077 11.3567 7.80548 11.27 7.63218 11.0965L1.07447 4.53713C0.901165 4.36369 0.814514 4.13475 0.814514 3.91275C0.814514 3.69075 0.901165 3.46181 1.07447 3.28838L4.1003 0.260156C4.2736 0.0867188 4.4989 0 4.72419 0C4.94948 0 5.17477 0.0867188 5.34807 0.260156L8.2526 3.16697L11.1398 0.274031C11.3131 0.100594 11.5384 0.013875 11.7637 0.013875C11.989 0.013875 12.2143 0.100594 12.3876 0.274031H12.391ZM14.5122 3.92663L11.7637 1.17591L8.63386 4.30819L8.2526 4.68975L7.87134 4.30819L4.72419 1.16203L1.97563 3.91275L8.2526 10.1947L14.5122 3.9301V3.92663Z" fill="#524697"/>
</g>
<defs>
<clipPath id="clip0_2_11">
<rect width="33" height="59" fill="white"/>
</clipPath>
</defs>
</svg>
