<svg width="30" height="30" viewBox="0 0 30 30" fill="none" xmlns="http://www.w3.org/2000/svg">
<path d="M24.5075 5.49212C21.9687 2.95295 18.5921 1.5542 15.0008 1.5542C7.58664 1.5542 1.55455 7.58628 1.55414 15C1.55455 22.4138 7.58664 28.4459 15.0008 28.4459C18.5921 28.4459 21.9687 27.0471 24.5075 24.5071C27.0479 21.9679 28.4462 18.5913 28.4458 15C28.4462 11.4088 27.0475 8.03212 24.5075 5.49212ZM22.4379 19.98C22.7783 18.6525 22.9875 17.2159 23.0375 15.7113H26.7558C26.6271 17.8838 25.9104 19.9425 24.6825 21.7067C24.2104 21.0517 23.4391 20.4654 22.4379 19.98ZM17.3037 26.5546C16.7146 26.6709 16.1125 26.7413 15.5021 26.7667V19.3713C17.7808 19.4238 19.8716 19.8296 21.4521 20.4538C20.6046 23.3067 19.1141 25.5213 17.3037 26.5546ZM8.54872 20.4534C10.1683 19.8138 12.3246 19.4042 14.6687 19.3688V26.7704C13.9933 26.7517 13.3312 26.6779 12.6887 26.55C10.8821 25.5138 9.39497 23.3017 8.54872 20.4534ZM5.32122 21.7013C4.1258 19.9804 3.37747 17.9279 3.24455 15.7113H6.9633C7.01372 17.2154 7.22289 18.6525 7.5633 19.9796C6.56414 20.4638 5.79372 21.0484 5.32122 21.7013ZM3.22372 14.8779C3.24789 12.5434 3.95414 10.3704 5.15331 8.54712C5.58372 9.27878 6.37997 9.93462 7.45289 10.4713C7.13705 11.8463 6.96122 13.3304 6.95247 14.8779H3.22372ZM7.79705 15.7113H8.8833C9.11372 15.7113 9.29997 15.525 9.29997 15.2946C9.29997 15.0642 9.11372 14.8779 8.8833 14.8779H7.78581C7.79414 13.4529 7.94664 12.085 8.22164 10.8159C9.93664 11.5075 12.1766 11.9338 14.6691 11.9688V14.8779H10.9666C10.7362 14.8779 10.55 15.0642 10.55 15.2946C10.55 15.525 10.7362 15.7113 10.9666 15.7113H14.6687V18.5354C12.2283 18.5696 10.03 18.9784 8.32914 19.6454C8.02955 18.4209 7.84455 17.0971 7.79705 15.7113ZM12.6883 3.45003C13.3312 3.32128 13.9933 3.24795 14.6687 3.2292V11.1354C12.2629 11.0992 10.0537 10.6692 8.42039 10.0004C9.23955 6.93462 10.7866 4.54045 12.6883 3.45003ZM21.58 10.0004C19.9858 10.6534 17.8416 11.0792 15.5021 11.1329V3.23295C16.1125 3.25837 16.7146 3.32837 17.3041 3.44503C19.2096 4.53295 20.7596 6.92962 21.58 10.0004ZM15.5021 11.9667C17.9262 11.915 20.1033 11.4921 21.7791 10.8159C22.0541 12.085 22.2062 13.4529 22.215 14.8779H15.5021V11.9667ZM15.5021 18.5375V15.7113H22.2037C22.1562 17.0971 21.9708 18.4213 21.6716 19.6459C20.01 18.9946 17.8746 18.5879 15.5021 18.5375ZM23.0479 14.8779C23.0391 13.3304 22.8637 11.8463 22.5479 10.4713C23.6241 9.93253 24.4221 9.2742 24.8516 8.5392C26.0829 10.4084 26.7529 12.5913 26.7758 14.8775L23.0479 14.8779ZM24.2971 7.76962C24.0712 8.46795 23.3712 9.11462 22.3379 9.65045C21.6958 7.35295 20.6546 5.41003 19.3575 4.05253C20.8271 4.63712 22.1775 5.51878 23.3296 6.67087C23.6775 7.0192 23.9983 7.38753 24.2971 7.76962ZM10.6333 4.06378C9.34081 5.42045 8.30372 7.3592 7.6633 9.65045C6.63331 9.11628 5.93455 8.47253 5.70622 7.7767C6.98122 6.13962 8.67831 4.84753 10.6333 4.06378ZM5.84747 22.4034C6.17747 21.8038 6.85622 21.2513 7.79122 20.7871C8.43789 22.8879 9.42414 24.6667 10.6333 25.9359C8.74997 25.1817 7.1058 23.9555 5.84747 22.4034ZM19.3571 25.9471C20.5712 24.6767 21.5612 22.8942 22.2096 20.7875C23.1471 21.2529 23.8275 21.8075 24.1562 22.4096C23.8975 22.7275 23.6225 23.0346 23.3287 23.3284C22.1766 24.4809 20.8266 25.3625 19.3571 25.9471Z" fill="black"/>
</svg>
