<svg width="30" height="30" viewBox="0 0 30 30" fill="none" xmlns="http://www.w3.org/2000/svg">
<path d="M9 26.5L15.25 21.5L21.5 26.5M10 21.5H20.5C22.6003 21.5 23.6502 21.5 24.4525 21.0913C25.1581 20.7318 25.7318 20.1581 26.0913 19.4525C26.5 18.6503 26.5 17.6003 26.5 15.5V10C26.5 7.8998 26.5 6.8497 26.0913 6.04754C25.7318 5.34193 25.1581 4.76825 24.4525 4.40873C23.6502 4 22.6003 4 20.5 4H10C7.8998 4 6.8497 4 6.04754 4.40873C5.34193 4.76825 4.76825 5.34193 4.40873 6.04754C4 6.8497 4 7.8998 4 10V15.5C4 17.6003 4 18.6503 4.40873 19.4525C4.76825 20.1581 5.34193 20.7318 6.04754 21.0913C6.8497 21.5 7.8998 21.5 10 21.5Z" stroke="black" stroke-width="2" stroke-linecap="round" stroke-linejoin="round"/>
</svg>
