<svg width="24" height="31" viewBox="0 0 24 31" fill="none" xmlns="http://www.w3.org/2000/svg">
<path d="M1.13311 7.05043L7.2222 0.942688C7.57094 0.592874 8.02431 0.417967 8.47768 0.417966C8.93105 0.417966 9.38441 0.592874 9.73316 0.942688L22.8948 14.1377C23.2435 14.4875 23.4179 14.9422 23.4179 15.397C23.4179 15.8517 23.2435 16.3065 22.8948 16.6563L9.70526 29.8932C9.35652 30.2431 8.89617 30.418 8.44978 30.418C8.00339 30.418 7.54304 30.2431 7.1943 29.8932L1.10521 23.7855C0.756464 23.4357 0.582092 22.9809 0.582092 22.5262C0.582092 22.0714 0.756464 21.6167 1.10521 21.2668L6.95017 15.404L1.13311 9.57608C0.784363 9.22627 0.609991 8.77151 0.609991 8.31676C0.609991 7.862 0.784363 7.40724 1.13311 7.05743L1.13311 7.05043ZM8.47768 2.76871L2.94658 8.31676L9.24492 14.6344L10.0122 15.404L9.24492 16.1736L2.91868 22.5262L8.44978 28.0742L21.0813 15.404L8.48465 2.76871L8.47768 2.76871Z" fill="black"/>
</svg>
